PathFileType	4	(X/Y/Z)	F:\MotionCapture\20160217\3\Generated_files\2_Test03-Dynamic.trc
DataRate	CameraRate	NumFrames	NumMarkers	Units	OrigDataRate	OrigDataStartFrame	OrigNumFrames
120.00	120.00	       4	39	mm	120.00	106	       841
Frame#	Time	Top.Head			Front.Head			Rear.Head			R.Shoulder			R.Offset			R.Elbow			R.Wrist			L.Shoulder			L.Elbow			L.Wrist			R.ASIS			L.ASIS			V.Sacral			R.Thigh			R.Knee			R.Shank			R.Ankle			R.Heel			R.Toe			L.Thigh			L.Knee			L.Shank			L.Ankle			L.Heel			L.Toe			R1			R2			R3			R4			R5			R6			R7			L1			L2			L3			L4			L5			L6			L7			V_Mid_ASIS			V_Pelvis_Origin			V_R.Hip_JC			V_L.Hip_JC			V_R.Knee_JC			V_L.Knee_JC			V_R.Ankle_JC			V_L.Ankle_JC			V_Mid_Hip			V_Mid_Shoulder			V_R.Hand			V_L.Hand			V_R.Toe_Offset_Static			V_L.Toe_Offset_Static			V_R.Toe_Offset			V_L.Toe_Offset			
		X1	Y1	Z1	X2	Y2	Z2	X3	Y3	Z3	X4	Y4	Z4	X5	Y5	Z5	X6	Y6	Z6	X7	Y7	Z7	X8	Y8	Z8	X9	Y9	Z9	X10	Y10	Z10	X11	Y11	Z11	X12	Y12	Z12	X13	Y13	Z13	X14	Y14	Z14	X15	Y15	Z15	X16	Y16	Z16	X17	Y17	Z17	X18	Y18	Z18	X19	Y19	Z19	X20	Y20	Z20	X21	Y21	Z21	X22	Y22	Z22	X23	Y23	Z23	X24	Y24	Z24	X25	Y25	Z25	X26	Y26	Z26	X27	Y27	Z27	X28	Y28	Z28	X29	Y29	Z29	X30	Y30	Z30	X31	Y31	Z31	X32	Y32	Z32	X33	Y33	Z33	X34	Y34	Z34	X35	Y35	Z35	X36	Y36	Z36	X37	Y37	Z37	X38	Y38	Z38	X39	Y39	Z39	

106	0.875	2411.47729	138.32947	1736.55359	2327.67090	67.56725	1650.85205	2506.56128	195.33214	1670.54089	2461.67822	339.63751	1431.64612	2608.81519	80.64072	1278.04382	2480.33179	431.66852	1102.98755	2371.74780	414.32709	864.86658	2471.90625	-69.38132	1433.84485	2475.41455	-154.96489	1105.29626	2384.07861	-136.33014	864.82788	2378.26245	285.54605	963.83539	2377.38330	-3.87635	965.63672	2603.14502	139.89847	951.06561	2354.80151	252.55132	581.38281	2435.70044	304.69061	473.14087	2448.43311	236.36990	238.54109	2512.15039	310.43582	73.22010	2580.33984	252.31403	50.01186	2370.55811	298.87671	48.25185	2345.56665	30.70211	632.27899	2441.62451	-22.53090	476.52078	2431.57373	46.20381	333.17419	2507.96484	-25.20079	70.04495	2572.48315	31.89186	51.49192	2368.45093	-25.34215	47.03692	2321.90186	279.08658	43.79186	2365.16650	261.66177	54.04714	2461.86060	224.68620	61.56520	2538.39795	222.62650	49.68430	2551.63770	296.61447	51.91930	2475.12085	324.00256	44.07840	2408.33276	341.08847	42.45280	2320.69995	0.13664	42.00489	2356.97925	13.27496	50.89505	2450.64868	58.67258	55.34139	2535.53345	62.58162	50.02854	2547.36499	-8.70240	51.18231	2478.39355	-45.19962	43.66410	2414.50073	-58.85170	48.74032																																																	3145.36523	244.41585	-144.27937	2891.82568	155.93471	-102.53633	
107	0.883	2410.97534	138.32941	1736.46948	2326.83081	67.98997	1650.63379	2506.21240	195.08716	1670.72693	2462.02979	339.70621	1431.54626	2608.60889	80.48247	1278.06348	2480.40186	431.56970	1102.94324	2371.38770	413.93018	864.89404	2471.59839	-69.43977	1433.95374	2475.60889	-155.35486	1105.39819	2384.63623	-136.29997	864.73566	2378.28003	285.53867	963.80505	2377.32935	-3.88949	965.62720	2603.08838	139.84428	951.06390	2354.58691	252.47910	581.45941	2435.42969	304.66589	473.12280	2448.33447	236.33356	238.52010	2512.14453	310.53775	73.26549	2580.33301	252.33730	50.02142	2370.53271	298.91199	48.30028	2345.47729	30.85570	632.29437	2441.26782	-22.75905	476.60861	2431.36816	46.11521	333.02750	2508.12207	-24.76528	69.50909	2572.51855	31.79535	51.41137	2368.50488	-25.38020	47.09923	2321.94263	279.17163	43.80598	2365.01465	261.73492	53.95013	2461.80493	224.70908	61.54081	2538.35767	222.62177	49.71202	2551.59790	296.64853	51.95904	2475.14355	323.98810	44.08328	2408.30420	341.07138	42.43021	2320.91040	0.19341	42.04068	2356.99854	13.27871	50.92537	2450.77832	58.62000	55.47503	2535.58423	62.53284	49.99649	2547.39331	-8.71381	51.14627	2475.06177	-41.15028	42.11621	2414.63159	-58.72158	48.75450																																																	3145.79614	244.32724	-144.41318	2891.58496	155.95705	-102.52126	
108	0.892	2410.30591	138.37181	1736.33142	2326.34839	68.27897	1650.16992	2506.04102	194.77496	1671.02649	2461.87988	339.62531	1431.32837	2608.38940	80.26607	1278.02173	2480.59229	431.57437	1102.93652	2370.29834	413.12360	865.15009	2471.45605	-69.50832	1434.00659	2475.63672	-155.57214	1105.89441	2385.25903	-136.19543	864.65564	2378.22510	285.46774	963.73340	2377.24438	-3.85452	965.62305	2603.04688	139.82359	951.04309	2354.10107	252.36249	581.59070	2435.05737	304.75455	472.86771	2448.19482	236.30522	238.51335	2512.25952	310.52460	73.42510	2580.30151	252.31789	49.98661	2370.61987	298.92365	48.34097	2344.88867	30.86259	632.50159	2440.96533	-22.84887	476.52762	2431.11108	46.18645	332.76682	2508.13159	-24.77999	69.52450	2572.60742	31.76916	51.36964	2368.48022	-25.38984	47.21999	2321.86328	279.14642	43.75459	2364.63867	261.66763	54.00855	2461.74048	224.76677	61.55180	2538.31787	222.66968	49.61222	2551.55811	296.63211	51.92557	2475.06299	323.99402	44.10911	2408.29858	341.00043	42.41758	2321.00684	0.19005	42.08316	2357.03247	13.31727	50.92641	2450.83276	58.54046	55.58466	2535.63208	62.48405	49.94430	2547.48145	-8.80927	51.07898	2475.08716	-41.18302	42.06731	2414.50562	-58.63557	48.65399																																																	3146.25854	244.29318	-144.43785	2892.03564	155.92038	-102.53686	
109	0.900	2409.54004	138.39291	1736.22449	2325.94287	68.59214	1649.53320	2505.96021	193.93187	1671.16187	2461.78711	339.48715	1431.30469	2608.20093	80.07360	1278.00635	2480.55859	431.62952	1102.77075	2369.73755	412.89490	865.65460	2471.13745	-69.65243	1433.97839	2475.85938	-155.95259	1106.02100	2385.50513	-136.18161	864.60217	2377.90137	285.36981	963.65991	2377.10010	-3.89329	965.61627	2602.97021	139.81119	951.00244	2353.88379	252.33194	581.63379	2434.63330	304.75882	472.75012	2447.97778	236.26575	238.43910	2511.58569	309.35275	71.80093	2580.29419	252.32330	50.02991	2370.61011	298.84833	48.40401	2344.54175	31.06253	632.59857	2440.37085	-22.95627	476.50922	2430.89575	46.06953	332.57639	2508.13208	-24.82071	69.43358	2572.65039	31.66290	51.26114	2368.54053	-25.40752	47.25153	2321.87622	279.08670	43.78630	2364.54199	261.55344	53.97613	2461.67676	224.75333	61.50250	2538.31177	222.63959	49.65724	2551.56006	296.66852	51.98788	2475.04126	323.99496	44.14135	2408.31592	340.97479	42.45622	2321.15576	0.18476	42.03747	2356.99316	13.30182	50.89346	2450.87012	58.58258	55.60943	2535.69116	62.41839	49.87957	2547.52563	-8.87375	51.04010	2475.03320	-41.24723	41.94506	2414.59766	-58.73689	48.70969																																																	3145.58276	244.44572	-144.17619	2892.98291	155.85121	-102.55019	
